<svg id="a90ac5bc-912b-41f9-91c7-09a11703385f" data-name="Layer 1" xmlns="http://www.w3.org/2000/svg" xmlns:xlink="http://www.w3.org/1999/xlink" viewBox="0 0 1172 826"><defs><linearGradient id="ad0b2b7e-a26a-4f63-ad1e-aa2e6edafd0c" x1="438.74" y1="633.44" x2="505.78" y2="680.83" gradientTransform="matrix(1, 0, 0, -1, 0, 862)" gradientUnits="userSpaceOnUse"><stop offset="0" stop-color="#fff"/><stop offset="0.9" stop-color="#fff" stop-opacity="0"/></linearGradient><linearGradient id="aadcedd5-65fa-4c2f-9114-5f9c2011e70d" x1="474.74" y1="561.3" x2="414.65" y2="519.11" xlink:href="#ad0b2b7e-a26a-4f63-ad1e-aa2e6edafd0c"/><linearGradient id="ead87fe5-8d1d-4ce3-9d97-8208a5d79c4e" x1="473.92" y1="559" x2="523.04" y2="593.1" xlink:href="#ad0b2b7e-a26a-4f63-ad1e-aa2e6edafd0c"/><linearGradient id="e0a040e9-b46b-4471-8db4-fe8885e8f1ac" x1="550.93" y1="444.36" x2="595.43" y2="472.1" xlink:href="#ad0b2b7e-a26a-4f63-ad1e-aa2e6edafd0c"/><linearGradient id="eeba56d1-6279-4d2b-baf2-0ca9978e0e4d" x1="551.62" y1="445.35" x2="514.64" y2="421.66" xlink:href="#ad0b2b7e-a26a-4f63-ad1e-aa2e6edafd0c"/><linearGradient id="a60255c7-eea1-41d4-99c6-f3b4efe9dd82" x1="505.28" y1="514.71" x2="556.14" y2="545.91" xlink:href="#ad0b2b7e-a26a-4f63-ad1e-aa2e6edafd0c"/><linearGradient id="abfbf33f-e9f1-454e-9464-c621e23abd21" x1="601.69" y1="345.79" x2="662.36" y2="371.22" xlink:href="#ad0b2b7e-a26a-4f63-ad1e-aa2e6edafd0c"/></defs><title>ep3route</title><rect width="1172" height="826" style="fill:none"/><circle cx="430.7" cy="55.3" r="45.1" style="opacity:0.10000000149011612;isolation:isolate"/><circle cx="634.9" cy="750" r="45.1" style="opacity:0.10000000149011612;isolation:isolate"/><g style="isolation:isolate"><text transform="translate(666.53 742.74)" style="isolation:isolate;font-size:15.623200416564941px;fill:#a9a9a9;font-family:ArialMT, Arial">KHAN</text><text transform="translate(666.53 758.74)" style="isolation:isolate;font-size:15.623200416564941px;fill:#a9a9a9;font-family:ArialMT, Arial">MARKE<tspan x="55.56" y="0" style="letter-spacing:-0.018095834157657194em">T</tspan></text></g><path d="M436.9,237.7a8.7,8.7,0,0,1-4.9-15.9l69.2-47.2A8.71,8.71,0,0,1,511,189l-69.2,47.2A8.09,8.09,0,0,1,436.9,237.7Z" transform="translate(-13.6 -17.1)" style="fill:url(#ad0b2b7e-a26a-4f63-ad1e-aa2e6edafd0c)"/><path d="M408,336.2a8.61,8.61,0,0,0,4.8,15.8,8.5,8.5,0,0,0,4.8-1.5l57.8-38.9-7.8-15.7Z" transform="translate(-13.6 -17.1)" style="fill:url(#aadcedd5-65fa-4c2f-9114-5f9c2011e70d)"/><path d="M527.3,276.9a8.65,8.65,0,1,0-9.6-14.4l-39.1,26.3,7.8,15.7Z" transform="translate(-13.6 -17.1)" style="fill:url(#ead87fe5-8d1d-4ce3-9d97-8208a5d79c4e)"/><path d="M601.9,385.9a8.63,8.63,0,0,0-11.9-2.8l-36.1,22.4,8.9,14.9,36.3-22.5A8.84,8.84,0,0,0,601.9,385.9Z" transform="translate(-13.6 -17.1)" style="fill:url(#e0a040e9-b46b-4471-8db4-fe8885e8f1ac)"/><path d="M510.4,432.4a8.63,8.63,0,0,0-2.8,11.9,8.53,8.53,0,0,0,7.4,4.1,8.69,8.69,0,0,0,4.6-1.3l31.1-19.2-9.4-14.6Z" transform="translate(-13.6 -17.1)" style="fill:url(#eeba56d1-6279-4d2b-baf2-0ca9978e0e4d)"/><path d="M505.3,357.3a8.69,8.69,0,0,1-4.8-15.9l50.3-33.5a8.65,8.65,0,0,1,9.6,14.4l-50.3,33.5A8.74,8.74,0,0,1,505.3,357.3Z" transform="translate(-13.6 -17.1)" style="fill:url(#a60255c7-eea1-41d4-99c6-f3b4efe9dd82)"/><path d="M597.6,526.6a8.7,8.7,0,0,1-3.4-16.7l63.1-26.5a8.69,8.69,0,1,1,6.8,16L601,526A9.74,9.74,0,0,1,597.6,526.6Z" transform="translate(-13.6 -17.1)" style="fill:url(#abfbf33f-e9f1-454e-9464-c621e23abd21)"/><polyline points="431.4 54.8 389.9 134.3 382.8 143.4 389.8 151.4 460.7 278.7 463.2 285.6 517.8 368 599.5 493 561.8 510.2 552.8 518.5 548.5 529.3 549.9 544.7 552 562.1 547.9 577.7 559.3 581.6 551.1 597.2 546.4 614.1 539.8 621.2 528.6 646.6 530.4 651.6 539.1 657.4 565 693.7 589.7 710.5 595 721.1 618.3 711.2 634.7 749.9" style="fill:none;stroke:#8172b3;stroke-linecap:round;stroke-linejoin:round;stroke-width:22.315799713134766px"/><polyline points="431.4 54.8 389.9 134.3 382.8 143.4 389.8 151.4 460.7 278.7 463.2 285.6 517.8 368 599.5 493 561.8 510.2 552.8 518.5 548.5 529.3 549.9 544.7 552 562.1 547.9 577.7 559.3 581.6 551.1 597.2 546.4 614.1 539.8 621.2 528.6 646.6 530.4 651.6 539.1 657.4 565 693.7 589.7 710.5 595 721.1 618.3 711.2 634.7 749.9" style="fill:none;stroke:#769bd0;stroke-linecap:round;stroke-linejoin:round;stroke-width:17.356800079345703px"/><circle cx="430.91" cy="55.28" r="12.5" style="fill:#fff;stroke:#231f20;stroke-linecap:round;stroke-miterlimit:10;stroke-width:4.0991997718811035px"/><circle cx="383.5" cy="143.4" r="7.6" style="fill:#fff;stroke:#8172b3;stroke-linecap:round;stroke-miterlimit:10;stroke-width:2.4795000553131104px"/><circle cx="634.62" cy="750.06" r="12.5" style="fill:#fff;stroke:#8172b3;stroke-linecap:round;stroke-miterlimit:10;stroke-width:4.0991997718811035px"/><circle cx="463.5" cy="286" r="7.6" style="fill:#fff;stroke:#8172b3;stroke-linecap:round;stroke-miterlimit:10;stroke-width:2.4795000553131104px"/><circle cx="530.6" cy="387.1" r="7.6" style="fill:#fff;stroke:#8172b3;stroke-linecap:round;stroke-miterlimit:10;stroke-width:2.4795000553131104px"/><circle cx="597.5" cy="492.4" r="7.6" style="fill:#fff;stroke:#8172b3;stroke-linecap:round;stroke-miterlimit:10;stroke-width:2.4795000553131104px"/><circle cx="561.7" cy="511.9" r="7.6" style="fill:#fff;stroke:#8172b3;stroke-linecap:round;stroke-miterlimit:10;stroke-width:2.4795000553131104px"/><circle cx="558" cy="582.8" r="7.6" style="fill:#fff;stroke:#8172b3;stroke-linecap:round;stroke-miterlimit:10;stroke-width:2.4795000553131104px"/><circle cx="596.7" cy="719.7" r="7.6" style="fill:#fff;stroke:#8172b3;stroke-linecap:round;stroke-miterlimit:10;stroke-width:2.4795000553131104px"/><circle cx="618.3" cy="712.1" r="7.6" style="fill:#fff;stroke:#8172b3;stroke-linecap:round;stroke-miterlimit:10;stroke-width:2.4795000553131104px"/><g id="a0731c66-9557-402f-ac04-5e433ef8d060" data-name="layer1"><g id="a6872b52-d3ba-49e0-bf0e-4766d01e08b1" data-name="g3477"><path id="a40c33fc-87f4-4879-bb27-8e747d48f833" data-name="path4337-3" d="M630.5,688.65a23.83,23.83,0,0,0-6.17,15.65c.24,11.74,5.46,16.12,13.88,32.25a156.81,156.81,0,0,1,9.24,26.91c.48,1.78.83,3.56,1.07,3.68s.59-1.55,1.07-3.44a141.17,141.17,0,0,1,9.24-26.92c8.42-16.12,13.64-20.51,13.88-32.24a22.92,22.92,0,0,0-6.17-15.65,26.5,26.5,0,0,0-18-8.3,24.63,24.63,0,0,0-18,8.06Z" transform="translate(-13.6 -17.1)" style="fill:#b3507a;stroke:#a53163;stroke-miterlimit:3.7939000129699707;stroke-width:3.039299964904785px"/><circle id="e6464567-3af0-4ae0-bde6-796c3419a50d" data-name="path3049" cx="634.92" cy="687.55" r="9.25" style="fill:#fff"/></g></g><g style="isolation:isolate"><text transform="translate(454.91 59.74)" style="isolation:isolate;font-size:15.623200416564941px;fill:#a9a9a9;font-family:ArialMT, Arial">BENGALI</text><text transform="translate(454.91 75.74)" style="isolation:isolate;font-size:15.623200416564941px;fill:#a9a9a9;font-family:ArialMT, Arial">SWEE<tspan x="46.01" y="0" style="letter-spacing:-0.01806458055807575em">T</tspan><tspan x="55.27" y="0" xml:space="preserve"> CENTRE</tspan></text></g></svg>