<svg id="ac6030f9-d5b5-41eb-8c2f-876f52c6206c" data-name="Layer 1" xmlns="http://www.w3.org/2000/svg" xmlns:xlink="http://www.w3.org/1999/xlink" viewBox="0 0 1172 826"><defs><linearGradient id="ac9ee371-41b8-4262-89da-cca0404bc55c" x1="557.73" y1="295.5" x2="646.59" y2="261.92" gradientTransform="matrix(1, 0, 0, -1, 0, 862)" gradientUnits="userSpaceOnUse"><stop offset="0" stop-color="#fff"/><stop offset="0.9" stop-color="#fff" stop-opacity="0"/></linearGradient><linearGradient id="a90b3083-c329-4cf8-9598-2ce1adb71e28" x1="606.77" y1="583.22" x2="673.61" y2="583.22" xlink:href="#ac9ee371-41b8-4262-89da-cca0404bc55c"/><linearGradient id="ad606232-266f-4075-995d-ff9a570c9d87" x1="601.63" y1="580.88" x2="545.32" y2="573.65" xlink:href="#ac9ee371-41b8-4262-89da-cca0404bc55c"/><linearGradient id="b07994ea-faba-44ff-bdf8-814161eaf37f" x1="682.93" y1="764.79" x2="594.59" y2="753.42" xlink:href="#ac9ee371-41b8-4262-89da-cca0404bc55c"/><linearGradient id="b80b59ee-4fc9-481b-b8aa-602e555ff9c0" x1="686.5" y1="767.17" x2="749.96" y2="767.17" xlink:href="#ac9ee371-41b8-4262-89da-cca0404bc55c"/><linearGradient id="e7157148-b9f7-4584-b32c-0d7f320d835f" x1="575.4" y1="354.1" x2="654.07" y2="354.1" xlink:href="#ac9ee371-41b8-4262-89da-cca0404bc55c"/><linearGradient id="bcd09327-5ed3-447a-9709-669295eeec32" x1="573.29" y1="366.61" x2="503.54" y2="392.96" xlink:href="#ac9ee371-41b8-4262-89da-cca0404bc55c"/></defs><title>ep4route</title><path d="M651.3,611.1a9.6,9.6,0,0,1-3.3-.6l-98.9-37.4a9.24,9.24,0,0,1,6.5-17.3l98.9,37.4a9.25,9.25,0,0,1-3.2,17.9Z" transform="translate(-13.6 -17.1)" style="fill:url(#ac9ee371-41b8-4262-89da-cca0404bc55c)"/><path d="M663.5,266.9,610.1,272l-3.4,10,1.6,8.7,56.9-5.4a9.22,9.22,0,0,0,8.3-10.1A9.07,9.07,0,0,0,663.5,266.9Z" transform="translate(-13.6 -17.1)" style="fill:url(#a90b3083-c329-4cf8-9598-2ce1adb71e28)"/><path d="M594.5,273.5l-53.8,5.2a9.27,9.27,0,0,0,.9,18.5h.9l54.2-5.2-5-15.6Z" transform="translate(-13.6 -17.1)" style="fill:url(#ad606232-266f-4075-995d-ff9a570c9d87)"/><path d="M594.7,98.6a9.23,9.23,0,0,0,1,18.4,3.4,3.4,0,0,0,1-.1l75.9-8.4,3.2-19Z" transform="translate(-13.6 -17.1)" style="fill:url(#b07994ea-faba-44ff-bdf8-814161eaf37f)"/><path d="M749.9,90.8a9.29,9.29,0,0,0-10.2-8.2l-50,5.5-3.2,19,55.3-6.1A9.22,9.22,0,0,0,749.9,90.8Z" transform="translate(-13.6 -17.1)" style="fill:url(#b80b59ee-4fc9-481b-b8aa-602e555ff9c0)"/><path d="M647.9,510.2l-64.8-22.5-7.7,16.9,66.4,23a10.47,10.47,0,0,0,3,.5,9.22,9.22,0,0,0,8.7-6.2A9,9,0,0,0,647.9,510.2Z" transform="translate(-13.6 -17.1)" style="fill:url(#e7157148-b9f7-4584-b32c-0d7f320d835f)"/><path d="M504.2,460.4a9.27,9.27,0,1,0-6.1,17.5l67.5,23.4,5.1-17.8Z" transform="translate(-13.6 -17.1)" style="fill:url(#bcd09327-5ed3-447a-9709-669295eeec32)"/><circle cx="670.2" cy="51.3" r="45.1" style="opacity:0.10000000149011612;isolation:isolate"/><circle cx="450.9" cy="744.8" r="45.1" style="opacity:0.10000000149011612;isolation:isolate"/><g style="isolation:isolate"><text transform="translate(690.04 54.27)" style="isolation:isolate;font-size:15.623200416564941px;fill:#a9a9a9;font-family:ArialMT, Arial">KHAN</text><text transform="translate(690.04 70.27)" style="isolation:isolate;font-size:15.623200416564941px;fill:#a9a9a9;font-family:ArialMT, Arial">MARKE<tspan x="55.56" y="0" style="letter-spacing:-0.018095834157657194em">T</tspan></text></g><rect width="1172" height="826" style="fill:none"/><polyline points="668.9 51 671.8 79.7 596 245.9 585.6 262.1 589.7 276.3 568.4 452.6 538.8 547.3 474.6 674.5 450.7 745.9" style="fill:none;stroke:#8172b3;stroke-linecap:round;stroke-linejoin:round;stroke-width:23.79640007019043px"/><polyline points="668.9 51 671.8 79.7 596 245.9 585.6 262.1 589.7 276.3 568.4 452.6 538.8 547.3 474.6 674.5 450.7 745.9" style="fill:none;stroke:#769bd0;stroke-linecap:round;stroke-linejoin:round;stroke-width:18.50830078125px"/><circle cx="685.58" cy="97.27" r="8.1" transform="translate(-19.96 53.62) rotate(-5.88)" style="fill:#fff;stroke:#8172b3;stroke-linecap:round;stroke-miterlimit:10;stroke-width:2.6440000534057617px"/><circle cx="599.19" cy="279.17" r="8.1" transform="translate(-39.04 45.73) rotate(-5.88)" style="fill:#fff;stroke:#8172b3;stroke-linecap:round;stroke-miterlimit:10;stroke-width:2.6440000534057617px"/><circle cx="574.09" cy="493.45" r="8.1" transform="translate(-61.11 44.28) rotate(-5.88)" style="fill:#fff;stroke:#8172b3;stroke-linecap:round;stroke-miterlimit:10;stroke-width:2.6440000534057617px"/><circle cx="450.71" cy="745.85" r="13.3" style="fill:#fff;stroke:#8172b3;stroke-linecap:round;stroke-miterlimit:10;stroke-width:4.371099948883057px"/><circle cx="682.47" cy="68.07" r="13.3" transform="translate(-16.98 53.15) rotate(-5.88)" style="fill:#fff;stroke:#231f20;stroke-linecap:round;stroke-miterlimit:10;stroke-width:4.371099948883057px"/><g id="a1d7b632-3b76-4f24-bb0c-274645c3dae5" data-name="layer1"><g id="b4a19388-f474-4248-8ed2-578493729032" data-name="g3477"><path id="b6010f95-9d59-4051-ab76-b117869e504b" data-name="path4337-3" d="M446,687.11a23.82,23.82,0,0,0-6.16,15.65c.23,11.74,5.45,16.12,13.87,32.25A157.57,157.57,0,0,1,463,761.92a18.7,18.7,0,0,0,1.06,3.67c.24.12.6-1.54,1.07-3.43a141.08,141.08,0,0,1,9.25-26.92c8.42-16.12,13.63-20.51,13.87-32.24a22.81,22.81,0,0,0-6.17-15.65,26.46,26.46,0,0,0-18-8.3c-7-.12-13.63,3.43-18,8.06Z" transform="translate(-13.6 -17.1)" style="fill:#b3507a;stroke:#a53163;stroke-miterlimit:3.7939000129699707;stroke-width:3.039299964904785px"/><circle id="ff1ef29b-45c4-40e2-b56d-a82e4fc24aa5" data-name="path3049" cx="450.44" cy="686.01" r="9.25" style="fill:#fff"/></g></g></svg>