<svg id="a94328ac-75ad-4a0d-af70-622d9e225429" data-name="Layer 1" xmlns="http://www.w3.org/2000/svg" xmlns:xlink="http://www.w3.org/1999/xlink" viewBox="0 0 1172 826"><defs><linearGradient id="f431093b-11f9-4100-bda0-3051c3d03c5c" x1="690.46" y1="668.2" x2="736.6" y2="668.2" gradientTransform="matrix(1, 0, 0, -1, 0, 862)" gradientUnits="userSpaceOnUse"><stop offset="0" stop-color="#fff"/><stop offset="0.9" stop-color="#fff" stop-opacity="0"/></linearGradient><linearGradient id="a052db1e-5d95-4352-8295-bd120e137f86" x1="688.14" y1="673.79" x2="648.29" y2="682.51" xlink:href="#f431093b-11f9-4100-bda0-3051c3d03c5c"/><linearGradient id="bb313f8e-2224-496c-af11-07c17b3598d8" x1="587.8" y1="289.75" x2="641.46" y2="289.75" xlink:href="#f431093b-11f9-4100-bda0-3051c3d03c5c"/><linearGradient id="ad6e8104-1a5e-426f-ab3d-be07c2a0e77c" x1="583.7" y1="303.9" x2="533.06" y2="339.19" xlink:href="#f431093b-11f9-4100-bda0-3051c3d03c5c"/><linearGradient id="f7459580-cede-43f6-ad67-433878594d62" x1="470.46" y1="117.12" x2="492.03" y2="82.23" xlink:href="#f431093b-11f9-4100-bda0-3051c3d03c5c"/><linearGradient id="a4c2a45a-6d96-4cac-ac36-0143133b138c" x1="462.08" y1="131.42" x2="428.46" y2="214.03" xlink:href="#f431093b-11f9-4100-bda0-3051c3d03c5c"/><linearGradient id="f56c7d6e-2cfc-487d-bbf5-1bd3702a0d53" x1="665.53" y1="586.67" x2="616.97" y2="601.61" xlink:href="#f431093b-11f9-4100-bda0-3051c3d03c5c"/><linearGradient id="bc22873f-7944-414e-bfff-62e47820a811" x1="553.41" y1="238.22" x2="518.96" y2="267.69" xlink:href="#f431093b-11f9-4100-bda0-3051c3d03c5c"/></defs><title>ep2route</title><path d="M730.3,189.7l-34.4-7.9-5.5,15.5,36.2,8.3a11,11,0,0,0,1.8.2,8.17,8.17,0,0,0,1.9-16.1Z" transform="translate(-13.6 -17.1)" style="fill:url(#f431093b-11f9-4100-bda0-3051c3d03c5c)"/><path d="M649.9,171.3a8.16,8.16,0,0,0-3.7,15.9l33.5,7.7,4.4-15.7Z" transform="translate(-13.6 -17.1)" style="fill:url(#a052db1e-5d95-4352-8295-bd120e137f86)"/><path d="M637,575.8l-44.2-22.5-5,15.7,41.8,21.3a8.08,8.08,0,0,0,3.7.9,8.13,8.13,0,0,0,3.7-15.4Z" transform="translate(-13.6 -17.1)" style="fill:url(#bb313f8e-2224-496c-af11-07c17b3598d8)"/><path d="M534.4,514.4a8.14,8.14,0,1,0-9.1,13.5l50.8,34.2,6.3-15.4Z" transform="translate(-13.6 -17.1)" style="fill:url(#ad6e8104-1a5e-426f-ab3d-be07c2a0e77c)"/><path d="M473.9,734.3l-14.3,7.9L483,781.3a8.22,8.22,0,0,0,7,4,8.22,8.22,0,0,0,7-12.4Z" transform="translate(-13.6 -17.1)" style="fill:url(#f7459580-cede-43f6-ad67-433878594d62)"/><path d="M467.5,722l-31.8-77.4a8.12,8.12,0,1,0-15,6.2l34.4,83.7.7,1.2-.3-5.2Z" transform="translate(-13.6 -17.1)" style="fill:url(#a4c2a45a-6d96-4cac-ac36-0143133b138c)"/><rect width="1172" height="826" style="fill:none"/><circle cx="818.9" cy="100.9" r="45.1" style="opacity:0.10000000149011612;isolation:isolate"/><circle cx="256" cy="691.1" r="45.1" style="opacity:0.10000000149011612;isolation:isolate"/><text transform="translate(754.01 72.24)" style="isolation:isolate;font-size:15.623200416564941px;fill:#a9a9a9;font-family:ArialMT, Arial">THE CHANAK<tspan x="100.7" y="0" style="letter-spacing:-0.07419604540635265em">Y</tspan><tspan x="109.96" y="0" style="letter-spacing:-0.05519385686083352em">A</tspan></text><g style="isolation:isolate"><text transform="translate(219.52 724.54)" style="isolation:isolate;font-size:15.623200416564941px;fill:#a9a9a9;font-family:ArialMT, Arial">BENGALI</text><text transform="translate(194.72 740.54)" style="isolation:isolate;font-size:15.623200416564941px;fill:#a9a9a9;font-family:ArialMT, Arial">SWEE<tspan x="46.01" y="0" style="letter-spacing:-0.01806458055807575em">T</tspan><tspan x="55.27" y="0" xml:space="preserve"> CENTRE</tspan></text></g><path d="M669.4,284.4a8.52,8.52,0,0,1-2.3-.3l-55.4-16.6a8.13,8.13,0,1,1,4.6-15.6l55.4,16.6a8.13,8.13,0,0,1,5.5,10.1A8.22,8.22,0,0,1,669.4,284.4Z" transform="translate(-13.6 -17.1)" style="fill:url(#f56c7d6e-2cfc-487d-bbf5-1bd3702a0d53)"/><path d="M554.2,632.9a8.13,8.13,0,0,1-5.3-2l-37.4-32.5a8.15,8.15,0,0,1,10.7-12.3l37.4,32.5a8.11,8.11,0,0,1,.8,11.5A8,8,0,0,1,554.2,632.9Z" transform="translate(-13.6 -17.1)" style="fill:url(#bc22873f-7944-414e-bfff-62e47820a811)"/><polyline points="817.6 100.7 791.8 131.3 735.2 78 703.7 53.8 694.1 61.9 697.3 76.4 641.6 313 632.7 354.2 573.8 501.1 564.9 506.8 577.8 523.7 566.5 559.3 551.1 602 540.7 607.7 539 627.1 468 704.6 438.9 720.7 419.5 675.5 401 677.1 349.3 671.5 321 679.6 308.9 673.9 299.2 702.2 254.8 688.4" style="fill:none;stroke:#8172b3;stroke-linecap:round;stroke-linejoin:round;stroke-width:20.949399948120117px"/><line x1="299.2" y1="702.2" x2="254.8" y2="688.4" style="fill:none;stroke:#8172b3;stroke-linecap:round;stroke-linejoin:round;stroke-width:20.949399948120117px"/><polyline points="817.6 100.7 791.8 131.3 735.2 78 703.7 53.8 694.1 61.9 697.3 76.4 641.6 313 632.7 354.2 573.8 501.1 564.9 506.8 577.8 523.7 566.5 559.3 551.1 602 540.7 607.7 539 627.1 468 704.6 438.9 720.7 419.5 675.5 401 677.1 349.3 671.5 321 679.6 308.9 673.9 299.2 702.2 254.8 688.4" style="fill:none;stroke:#769bd0;stroke-linecap:round;stroke-linejoin:round;stroke-width:16.29400062561035px"/><circle cx="817.6" cy="100.8" r="11.7" style="fill:#fff;stroke:#231f20;stroke-linecap:round;stroke-miterlimit:10;stroke-width:3.8482000827789307px"/><circle cx="255.3" cy="688.6" r="11.7" style="fill:#fff;stroke:#8172b3;stroke-linecap:round;stroke-miterlimit:10;stroke-width:3.8482000827789307px"/><circle cx="791.7" cy="128.7" r="7.1" style="fill:#fff;stroke:#8172b3;stroke-linecap:round;stroke-miterlimit:10;stroke-width:2.327699899673462px"/><circle cx="696.2" cy="76.6" r="7.1" style="fill:#fff;stroke:#8172b3;stroke-linecap:round;stroke-miterlimit:10;stroke-width:2.327699899673462px"/><circle cx="572.7" cy="517.7" r="7.1" style="fill:#fff;stroke:#8172b3;stroke-linecap:round;stroke-miterlimit:10;stroke-width:2.327699899673462px"/><circle cx="466.3" cy="706.7" r="7.1" style="fill:#fff;stroke:#8172b3;stroke-linecap:round;stroke-miterlimit:10;stroke-width:2.327699899673462px"/><circle cx="437.1" cy="719.8" r="7.1" style="fill:#fff;stroke:#8172b3;stroke-linecap:round;stroke-miterlimit:10;stroke-width:2.327699899673462px"/><circle cx="309.3" cy="675.7" r="7.1" style="fill:#fff;stroke:#8172b3;stroke-linecap:round;stroke-miterlimit:10;stroke-width:2.327699899673462px"/><circle cx="298.6" cy="701.3" r="7.1" style="fill:#fff;stroke:#8172b3;stroke-linecap:round;stroke-miterlimit:10;stroke-width:2.327699899673462px"/><g id="ba6d85a0-f601-4583-99e0-99cc74b271b1" data-name="layer1"><g id="edf222a1-d25c-46d5-9cd1-e9f1b959b8ba" data-name="g3477"><path id="e8f66789-3bed-49eb-bddc-3cb037946746" data-name="path4337-3" d="M251.7,625.46a23.82,23.82,0,0,0-6.16,15.65c.24,11.73,5.45,16.12,13.87,32.25a156.7,156.7,0,0,1,9.25,26.91c.47,1.78.83,3.56,1.07,3.67s.59-1.54,1.06-3.43A141.78,141.78,0,0,1,280,673.59c8.42-16.12,13.63-20.51,13.87-32.25a22.88,22.88,0,0,0-6.16-15.65,26.54,26.54,0,0,0-18-8.29c-7.12-.12-13.64,3.43-18,8.06Z" transform="translate(-13.6 -17.1)" style="fill:#b3507a;stroke:#a53163;stroke-miterlimit:3.7939000129699707;stroke-width:3.039299964904785px"/><circle id="accfb187-312e-448f-af3d-208bf5baca9a" data-name="path3049" cx="256.13" cy="624.36" r="9.25" style="fill:#fff"/></g></g></svg>