<svg id="a1acff07-9cfb-4d79-9144-679b429414cf" data-name="Layer 1" xmlns="http://www.w3.org/2000/svg" xmlns:xlink="http://www.w3.org/1999/xlink" viewBox="0 0 1172 826"><defs><linearGradient id="b73b984d-fc55-499e-b97a-70188dd6be2d" x1="525.98" y1="462.79" x2="612.18" y2="495.37" gradientTransform="matrix(0.99, -0.12, 0.12, 0.99, 0.8, 182.4)" gradientUnits="userSpaceOnUse"><stop offset="0" stop-color="#fff"/><stop offset="0.9" stop-color="#fff" stop-opacity="0"/></linearGradient><linearGradient id="b5b99194-654f-4892-a09c-8c4f0655d099" x1="573.56" y1="183.62" x2="638.46" y2="183.62" xlink:href="#b73b984d-fc55-499e-b97a-70188dd6be2d"/><linearGradient id="beb10e64-530b-4da0-b139-303630e458e8" x1="568.58" y1="185.9" x2="513.94" y2="192.92" xlink:href="#b73b984d-fc55-499e-b97a-70188dd6be2d"/><linearGradient id="b7f8c983-1532-45a1-bc3f-e320573a06e2" x1="647.45" y1="7.54" x2="561.75" y2="18.56" xlink:href="#b73b984d-fc55-499e-b97a-70188dd6be2d"/><linearGradient id="a9106f8e-dc33-4ed1-b745-dcc4c5588ca5" x1="650.91" y1="5.21" x2="712.52" y2="5.21" xlink:href="#b73b984d-fc55-499e-b97a-70188dd6be2d"/><linearGradient id="f65b64ce-5a82-41d9-b29c-e4e33baa9e16" x1="543.18" y1="405.93" x2="619.44" y2="405.93" xlink:href="#b73b984d-fc55-499e-b97a-70188dd6be2d"/><linearGradient id="ba57576f-7e97-4dc6-b25c-b50434a3654d" x1="541.04" y1="393.88" x2="473.38" y2="368.32" xlink:href="#b73b984d-fc55-499e-b97a-70188dd6be2d"/></defs><title>prologue-route</title><path d="M673.8,610.8a8.66,8.66,0,0,1-3.2-.2L571,586.1a8.95,8.95,0,0,1,4.2-17.4l99.6,24.5a9,9,0,0,1-1,17.6Z" transform="translate(-13.6 -17.1)" style="fill:url(#b73b984d-fc55-499e-b97a-70188dd6be2d)"/><path d="M645.5,277.8,594.6,289l-2.1,10,2.6,8.2,54.2-11.8a9,9,0,0,0-3.8-17.6Z" transform="translate(-13.6 -17.1)" style="fill:url(#b5b99194-654f-4892-a09c-8c4f0655d099)"/><path d="M579.8,292.2l-51.2,11.3a9,9,0,0,0,3,17.7c.3,0,.6-.1.9-.1l51.6-11.3-6.6-14.4Z" transform="translate(-13.6 -17.1)" style="fill:url(#beb10e64-530b-4da0-b139-303630e458e8)"/><path d="M559.6,123.8a9,9,0,0,0-6.7,10.8,8.83,8.83,0,0,0,9.8,6.8,3.55,3.55,0,0,0,1-.2l72.1-16.9.9-18.7Z" transform="translate(-13.6 -17.1)" style="fill:url(#b7f8c983-1532-45a1-bc3f-e320573a06e2)"/><path d="M708.2,98.2a9,9,0,0,0-10.8-6.7l-47.5,11.1-.9,18.7L701.5,109A9,9,0,0,0,708.2,98.2Z" transform="translate(-13.6 -17.1)" style="fill:url(#a9106f8e-dc33-4ed1-b745-dcc4c5588ca5)"/><path d="M658.8,514l-65-14.1-5.4,17.2L655,531.5a9.52,9.52,0,0,0,2.9.1,9,9,0,0,0,7.7-7A8.85,8.85,0,0,0,658.8,514Z" transform="translate(-13.6 -17.1)" style="fill:url(#f65b64ce-5a82-41d9-b29c-e4e33baa9e16)"/><path d="M514.6,482.8a9,9,0,1,0-3.8,17.6l67.7,14.7,2.8-17.7Z" transform="translate(-13.6 -17.1)" style="fill:url(#ba57576f-7e97-4dc6-b25c-b50434a3654d)"/><circle cx="626.4" cy="68" r="45.1" style="opacity:0.10000000149011612;isolation:isolate"/><circle cx="512.49" cy="779.85" r="45.1" transform="translate(-414.93 573.7) rotate(-45)" style="opacity:0.10000000149011612;isolation:isolate"/><text transform="translate(521.66 760.24)" style="isolation:isolate;font-size:15.623200416564941px;fill:#a9a9a9;font-family:ArialMT, Arial">KHAN</text><text transform="translate(521.66 776.24)" style="isolation:isolate;font-size:15.623200416564941px;fill:#a9a9a9;font-family:ArialMT, Arial">MARKE<tspan x="55.56" y="0" style="letter-spacing:-0.018095834157657194em">T</tspan></text><rect width="1172" height="826" style="fill:none"/><polyline points="627 67.1 633.2 94.4 579.5 263.3 571.4 280.1 577 293.3 577 465.5 559.5 560.2 512.5 690.2 497.8 761.7" style="fill:none;stroke:#8172b3;stroke-linecap:round;stroke-linejoin:round;stroke-width:23.085399627685547px"/><polyline points="627 67.1 633.2 94.4 579.5 263.3 571.4 280.1 577 293.3 577 465.5 559.5 560.2 512.5 690.2 497.8 761.7" style="fill:none;stroke:#769bd0;stroke-linecap:round;stroke-linejoin:round;stroke-width:17.955299377441406px"/><circle cx="647.02" cy="111.91" r="7.9" transform="translate(-23.18 101.19) rotate(-10.37)" style="fill:#fff;stroke:#8172b3;stroke-linecap:round;stroke-miterlimit:9.999600410461426;stroke-width:2.5648999214172363px"/><circle cx="585" cy="297.13" r="7.9" transform="translate(-59.6 100.17) rotate(-11.02)" style="fill:#fff;stroke:#8172b3;stroke-linecap:round;stroke-miterlimit:9.999600410461426;stroke-width:2.5648999214172363px"/><circle cx="585.79" cy="506.43" r="7.9" transform="translate(-99.58 104.17) rotate(-11.02)" style="fill:#fff;stroke:#8172b3;stroke-linecap:round;stroke-miterlimit:9.999600410461426;stroke-width:2.5648999214172363px"/><circle cx="497.8" cy="761.7" r="12.9" style="fill:#fff;stroke:#8172b3;stroke-linecap:round;stroke-miterlimit:9.999600410461426;stroke-width:4.240300178527832px"/><circle cx="640.59" cy="84.1" r="12.9" transform="translate(-18.58 41.15) rotate(-5.19)" style="fill:#fff;stroke:#231f20;stroke-linecap:round;stroke-miterlimit:9.999600410461426;stroke-width:4.240300178527832px"/><g id="b3f1f202-f900-4f70-bf89-2a71fca4d6ac" data-name="layer1"><g id="a1faf75e-ca98-40db-9def-65dfc235a8ef" data-name="g3477"><path id="aa31b5cb-0ac3-4ed4-8c0e-33c169a44f99" data-name="path4337-3" d="M494.16,700.86A23.78,23.78,0,0,0,488,716.51c.24,11.74,5.46,16.12,13.87,32.25a155.84,155.84,0,0,1,9.25,26.91c.47,1.78.83,3.56,1.07,3.68s.59-1.54,1.06-3.44A141.39,141.39,0,0,1,522.49,749c8.42-16.13,13.64-20.51,13.87-32.25a22.88,22.88,0,0,0-6.16-15.65,26.55,26.55,0,0,0-18-8.3c-7-.12-13.64,3.44-18,8.06Z" transform="translate(-13.6 -17.1)" style="fill:#b3507a;stroke:#a53163;stroke-miterlimit:4.498000144958496;stroke-width:3.603300094604492px"/><circle id="a2f294c3-c9a6-49b6-8c94-55840d83d68e" data-name="path3049" cx="498.58" cy="699.77" r="9.25" style="fill:#fff"/></g></g></svg>