<svg id="b5f00993-9b82-4ac0-afe5-b28815be008e" data-name="Layer 1" xmlns="http://www.w3.org/2000/svg" xmlns:xlink="http://www.w3.org/1999/xlink" viewBox="0 0 1172 826"><defs><linearGradient id="a2b2eddb-28b9-498b-bdeb-4e962f46a4a2" x1="395.91" y1="-33.11" x2="351.53" y2="-39.89" gradientTransform="matrix(0.93, -0.38, -0.38, -0.93, 305.04, 726.32)" gradientUnits="userSpaceOnUse"><stop offset="0" stop-color="#fff"/><stop offset="0.79" stop-color="#fff" stop-opacity="0"/></linearGradient><linearGradient id="ee1d7bdb-672b-449b-a938-6aa754b17fd8" x1="404.05" y1="-29.42" x2="443.72" y2="-29.42" xlink:href="#a2b2eddb-28b9-498b-bdeb-4e962f46a4a2"/><linearGradient id="e783e446-fcd2-4dea-8e19-239ffd44c1cb" x1="426.37" y1="-177.43" x2="433.43" y2="-223.79" xlink:href="#a2b2eddb-28b9-498b-bdeb-4e962f46a4a2"/><linearGradient id="b644f02c-d546-4988-b147-8155aa0f0b15" x1="423.83" y1="-167.59" x2="394.15" y2="-175.22" xlink:href="#a2b2eddb-28b9-498b-bdeb-4e962f46a4a2"/><linearGradient id="efb23bb7-f29d-47af-907e-3b6cf6c7dd8f" x1="382.68" y1="38.17" x2="304.38" y2="36.76" xlink:href="#a2b2eddb-28b9-498b-bdeb-4e962f46a4a2"/><linearGradient id="b28f842d-f5e5-4694-932e-caba33bcab01" x1="391.31" y1="41.77" x2="456.94" y2="41.77" xlink:href="#a2b2eddb-28b9-498b-bdeb-4e962f46a4a2"/><linearGradient id="feba9db1-8b97-428c-8a2a-a9fa8b5b7972" x1="504.05" y1="264" x2="489.06" y2="234.61" gradientTransform="matrix(0.93, -0.38, -0.38, -0.93, 305.04, 726.32)" gradientUnits="userSpaceOnUse"><stop offset="0" stop-color="#fff"/><stop offset="0.9" stop-color="#fff" stop-opacity="0"/></linearGradient><linearGradient id="ab571dcf-14d9-49af-84f3-0b6637f5f1ad" x1="532.59" y1="202.81" x2="497.26" y2="218.64" gradientTransform="matrix(0.93, -0.38, -0.38, -0.93, 291.44, 709.22)" xlink:href="#feba9db1-8b97-428c-8a2a-a9fa8b5b7972"/><linearGradient id="b24abe56-ec75-4830-bdc3-655c4c7a5f1d" x1="558.07" y1="188.45" x2="591.14" y2="124.85" xlink:href="#feba9db1-8b97-428c-8a2a-a9fa8b5b7972"/><linearGradient id="fc5fe49d-9b64-400e-8873-9d7dcaf51bc0" x1="490.86" y1="574.83" x2="440.63" y2="578.69" gradientTransform="matrix(0.93, -0.38, 0.38, 0.93, -21.76, -79.63)" xlink:href="#feba9db1-8b97-428c-8a2a-a9fa8b5b7972"/><linearGradient id="a49d58d5-c2c8-4865-9f60-3d13e81dcd14" x1="483.04" y1="543.5" x2="547.41" y2="543.5" gradientTransform="matrix(0.93, -0.38, 0.38, 0.93, -21.76, -79.63)" xlink:href="#feba9db1-8b97-428c-8a2a-a9fa8b5b7972"/><linearGradient id="f04aab74-3566-477d-b515-869bfa618c0d" x1="459.02" y1="526.15" x2="423.81" y2="527.34" gradientTransform="matrix(0.93, -0.38, 0.38, 0.93, -21.76, -79.63)" xlink:href="#feba9db1-8b97-428c-8a2a-a9fa8b5b7972"/><linearGradient id="e8e6dba0-2151-4a75-a0ea-e537143bac22" x1="408.53" y1="445.6" x2="406.31" y2="412.24" gradientTransform="matrix(0.93, -0.38, 0.38, 0.93, -35.36, -96.73)" gradientUnits="userSpaceOnUse"><stop offset="0" stop-color="#fff"/><stop offset="0.83" stop-color="#fff" stop-opacity="0"/></linearGradient><linearGradient id="b34adb93-8fcf-46e0-b468-50e214a3476e" x1="409.47" y1="467.78" x2="412.14" y2="515.38" gradientTransform="matrix(0.93, -0.38, 0.38, 0.93, -35.36, -96.73)" xlink:href="#feba9db1-8b97-428c-8a2a-a9fa8b5b7972"/><linearGradient id="b8c67328-3b0d-4f25-9aa6-caef8816364f" x1="402.07" y1="331.62" x2="406.22" y2="403.26" gradientTransform="matrix(0.93, -0.38, 0.38, 0.93, -21.76, -79.63)" gradientUnits="userSpaceOnUse"><stop offset="0" stop-color="#fff"/><stop offset="0.48" stop-color="#fff" stop-opacity="0"/></linearGradient><linearGradient id="bbb6d4e7-561e-46b0-b74b-0c778da3b8f0" x1="519.66" y1="107.17" x2="570.82" y2="73.25" xlink:href="#a2b2eddb-28b9-498b-bdeb-4e962f46a4a2"/><linearGradient id="a82daea9-84e1-4216-bf00-f4b9cc94d070" x1="466.98" y1="518.52" x2="520.69" y2="484.3" gradientTransform="matrix(0.93, -0.38, 0.38, 0.93, -21.76, -79.63)" xlink:href="#feba9db1-8b97-428c-8a2a-a9fa8b5b7972"/><linearGradient id="fc974f02-3860-4048-b45a-233f258f638e" x1="505.7" y1="600.44" x2="570.7" y2="560.35" gradientTransform="matrix(0.93, -0.38, 0.38, 0.93, -21.76, -79.63)" xlink:href="#feba9db1-8b97-428c-8a2a-a9fa8b5b7972"/></defs><title>ep1route</title><rect width="1172" height="826" style="fill:none"/><circle cx="461.3" cy="61.6" r="45.1" style="opacity:0.10000000149011612;isolation:isolate"/><circle cx="826.4" cy="690.3" r="45.1" style="opacity:0.10000000149011612;isolation:isolate"/><path d="M644.8,622.6a7.8,7.8,0,0,0-2.8,10.5,7.71,7.71,0,0,0,9.5,3.2c.4-.2.6-.2,1-.4l31-18-8.7-12.3Z" transform="translate(-13.6 -17.1)" style="fill:url(#a2b2eddb-28b9-498b-bdeb-4e962f46a4a2)"/><path d="M726.1,584a7.65,7.65,0,0,0-10.5-2.8l-27.1,15.7,8.2,12.8,26.5-15.4A7.7,7.7,0,0,0,726.1,584Z" transform="translate(-13.6 -17.1)" style="fill:url(#ee1d7bdb-672b-449b-a938-6aa754b17fd8)"/><path d="M782.9,772.4a7.65,7.65,0,0,0,9.4,3c.4-.2.8-.3,1.2-.5a7.6,7.6,0,0,0,2.6-10.4L770,721.4l-14.2,5.8Z" transform="translate(-13.6 -17.1)" style="fill:url(#e783e446-fcd2-4dea-8e19-239ffd44c1cb)"/><path d="M732.9,733.1a7.53,7.53,0,0,0,8.7,12.3l25.3-17.7L761,713.3Z" transform="translate(-13.6 -17.1)" style="fill:url(#b644f02c-d546-4988-b147-8155aa0f0b15)"/><path d="M631.9,539.9l-16.2,15.9L569.5,567a7.56,7.56,0,0,0-5.6,9.3,7.46,7.46,0,0,0,9.3,5.6l50.3-12.5,16.9-16.6,2.2-.9-2.9-15.2Z" transform="translate(-13.6 -17.1)" style="fill:url(#efb23bb7-f29d-47af-907e-3b6cf6c7dd8f)"/><path d="M703.2,511.9l-50,19.6,1.5,15.8,54-21.2a7.6,7.6,0,0,0,4.2-9.9A7.31,7.31,0,0,0,703.2,511.9Z" transform="translate(-13.6 -17.1)" style="fill:url(#b28f842d-f5e5-4694-932e-caba33bcab01)"/><path d="M683,284.1a7.6,7.6,0,0,0-15-2.4l-7.5,45.6,15.4-.6Z" transform="translate(-13.6 -17.1)" style="fill:url(#feba9db1-8b97-428c-8a2a-a9fa8b5b7972)"/><polygon points="713 313.8 664.7 311.9 662.7 327 709.5 328.8 713.2 313.9 713 313.8" style="fill:url(#ab571dcf-14d9-49af-84f3-0b6637f5f1ad)"/><path d="M812.8,384l-58.3-48.8-3.8,16.5,52.6,43.9a7.67,7.67,0,0,0,7.8,1.3,6.8,6.8,0,0,0,2.9-2.1A7.93,7.93,0,0,0,812.8,384Z" transform="translate(-13.6 -17.1)" style="fill:url(#b24abe56-ec75-4830-bdc3-655c4c7a5f1d)"/><path d="M606.1,290.3a7.42,7.42,0,0,0,1.7,10.5,7.93,7.93,0,0,0,7.4,1,8.7,8.7,0,0,0,3.2-2.5L638,272.7l-12.2-8.8Z" transform="translate(-13.6 -17.1)" style="fill:url(#fc5fe49d-9b64-400e-8873-9d7dcaf51bc0)"/><path d="M681.4,200.6a7.42,7.42,0,0,0-10.5,1.7l-36.8,50,12.5,8.5,36.3-49.3A7.82,7.82,0,0,0,681.4,200.6Z" transform="translate(-13.6 -17.1)" style="fill:url(#a49d58d5-c2c8-4865-9f60-3d13e81dcd14)"/><path d="M595.1,229.8l-27.2,12.4,6.3,13.8,27.2-12.4a7.58,7.58,0,0,0,3.6-10.1C603.3,229.7,598.7,227.8,595.1,229.8Z" transform="translate(-13.6 -17.1)" style="fill:url(#f04aab74-3566-477d-b515-869bfa618c0d)"/><polygon points="504.5 132.2 490.5 138.1 504.9 168.5 518.7 162.2 504.5 132.2" style="fill:url(#e8e6dba0-2151-4a75-a0ea-e537143bac22)"/><polygon points="526.5 179.1 512.7 185.4 532.9 228.2 546.7 221.9 526.5 179.1" style="fill:url(#b34adb93-8fcf-46e0-b468-50e214a3476e)"/><path d="M482.2,73a7.58,7.58,0,1,0-13.7,6.5l15.1,32,13.9-6.1Z" transform="translate(-13.6 -17.1)" style="fill:url(#b8c67328-3b0d-4f25-9aa6-caef8816364f)"/><path d="M836,456.2a6.35,6.35,0,0,1-4.3.3l-95.4-19a7.49,7.49,0,0,1,2.9-14.7l95.4,19a7.42,7.42,0,0,1,5.9,8.8A6.87,6.87,0,0,1,836,456.2Z" transform="translate(-13.6 -17.1)" style="fill:url(#bbb6d4e7-561e-46b0-b74b-0c778da3b8f0)"/><path d="M602,241.7a7.49,7.49,0,0,1-9-11.3l40.8-57.2A7.52,7.52,0,1,1,646,182l-40.7,56.9A6.94,6.94,0,0,1,602,241.7Z" transform="translate(-13.6 -17.1)" style="fill:url(#a82daea9-84e1-4216-bf00-f4b9cc94d070)"/><path d="M678.3,289.7a7.41,7.41,0,0,1-7.4-1,7.51,7.51,0,0,1-1.5-10.6l41.9-56.9a7.57,7.57,0,1,1,12.1,9.1l-41.9,56.9A6.3,6.3,0,0,1,678.3,289.7Z" transform="translate(-13.6 -17.1)" style="fill:url(#fc974f02-3860-4048-b45a-233f258f638e)"/><polyline points="461.7 60.8 443.3 63.8 431.3 192 437.9 197.5 505.4 166.9 509.6 159.8 516.2 163 514.8 172.7 521.6 187.2 537.2 181.8 578.6 213.1 588.1 212.8 589.6 222.2 655.3 267.8 663.2 267.7 664.9 276.5 713.9 307.4 711.8 323 733.1 320.4 736.7 324.5 731.3 334.9 727.2 414.1 639.1 452.2 633.1 523.6 637.3 538.2 749 706.3 761.4 703.6 781.2 687.7 792.4 684.3 826.4 690.8" style="fill:none;stroke:#8272b4;stroke-linecap:round;stroke-linejoin:round;stroke-width:19.490400314331055px"/><polyline points="461.7 60.8 443.3 63.8 431.3 192 437.9 197.5 505.4 166.9 509.6 159.8 516.2 163 514.8 172.7 521.6 187.2 537.2 181.8 578.6 213.1 588.1 212.8 589.6 222.2 655.3 267.8 663.2 267.7 664.9 276.5 713.9 307.4 711.8 323 733.1 320.4 736.7 324.5 731.3 334.9 727.2 414.1 639.1 452.2 633.1 523.6 637.3 538.2 749 706.3 761.4 703.6 781.2 687.7 792.4 684.3 826.4 690.8" style="fill:none;stroke:#769cd1;stroke-linecap:round;stroke-linejoin:round;stroke-width:15.159199714660645px"/><circle cx="826.4" cy="690.8" r="10.8" style="fill:#fff;stroke:#8272b4;stroke-linecap:round;stroke-miterlimit:10;stroke-width:3.580199956893921px"/><circle cx="443.6" cy="64.6" r="6.5" style="fill:#fff;stroke:#8272b4;stroke-linecap:round;stroke-miterlimit:10;stroke-width:2.165600061416626px"/><circle cx="431.4" cy="193.6" r="6.5" style="fill:#fff;stroke:#8272b4;stroke-linecap:round;stroke-miterlimit:10;stroke-width:2.165600061416626px"/><circle cx="506.2" cy="165.9" r="6.5" style="fill:#fff;stroke:#8272b4;stroke-linecap:round;stroke-miterlimit:10;stroke-width:2.165600061416626px"/><circle cx="521.8" cy="187.6" r="6.5" style="fill:#fff;stroke:#8272b4;stroke-linecap:round;stroke-miterlimit:10;stroke-width:2.165600061416626px"/><circle cx="536.4" cy="182.8" r="6.5" style="fill:#fff;stroke:#8272b4;stroke-linecap:round;stroke-miterlimit:10;stroke-width:2.165600061416626px"/><circle cx="582" cy="213.4" r="6.5" style="fill:#fff;stroke:#8272b4;stroke-linecap:round;stroke-miterlimit:10;stroke-width:2.165600061416626px"/><circle cx="603.2" cy="232.2" r="6.5" style="fill:#fff;stroke:#8272b4;stroke-linecap:round;stroke-miterlimit:10;stroke-width:2.165600061416626px"/><circle cx="655.6" cy="268.1" r="6.5" style="fill:#fff;stroke:#8272b4;stroke-linecap:round;stroke-miterlimit:10;stroke-width:2.165600061416626px"/><circle cx="712.1" cy="321.4" r="6.5" style="fill:#fff;stroke:#8272b4;stroke-linecap:round;stroke-miterlimit:10;stroke-width:2.165600061416626px"/><circle cx="728.6" cy="321.8" r="6.5" style="fill:#fff;stroke:#8272b4;stroke-linecap:round;stroke-miterlimit:10;stroke-width:2.165600061416626px"/><circle cx="725" cy="409.7" r="6.5" style="fill:#fff;stroke:#8272b4;stroke-linecap:round;stroke-miterlimit:10;stroke-width:2.165600061416626px"/><circle cx="646.3" cy="450.9" r="6.5" style="fill:#fff;stroke:#8272b4;stroke-linecap:round;stroke-miterlimit:10;stroke-width:2.165600061416626px"/><circle cx="633.9" cy="524" r="6.5" style="fill:#fff;stroke:#8272b4;stroke-linecap:round;stroke-miterlimit:10;stroke-width:2.165600061416626px"/><circle cx="673.5" cy="589.9" r="6.5" style="fill:#fff;stroke:#8272b4;stroke-linecap:round;stroke-miterlimit:10;stroke-width:2.165600061416626px"/><circle cx="748" cy="705.5" r="6.5" style="fill:#fff;stroke:#8272b4;stroke-linecap:round;stroke-miterlimit:10;stroke-width:2.165600061416626px"/><circle cx="781.5" cy="688.5" r="6.5" style="fill:#fff;stroke:#8272b4;stroke-linecap:round;stroke-miterlimit:10;stroke-width:2.165600061416626px"/><circle cx="461.8" cy="61" r="10.8" style="fill:#fff;stroke:#000;stroke-linecap:round;stroke-miterlimit:10;stroke-width:3.580199956893921px"/><text transform="translate(776.53 725.09)" style="isolation:isolate;font-size:15.623200416564941px;fill:#a9a9a9;font-family:ArialMT, Arial">THE CHANAK<tspan x="100.7" y="0" style="letter-spacing:-0.07419604540635265em">Y</tspan><tspan x="109.96" y="0" style="letter-spacing:-0.05519385686083352em">A</tspan></text><text transform="translate(481.43 66.37)" style="isolation:isolate;font-size:15.623200416564941px;fill:#a9a9a9;font-family:ArialMT, Arial">CONNAUGH<tspan x="91.14" y="0" style="letter-spacing:-0.01806458055807575em">T</tspan><tspan x="100.4" y="0" xml:space="preserve" style="letter-spacing:-0.000031253599581445935em"> PLACE</tspan></text><g id="ebe5ad8f-0c1f-48da-9636-c726ceeead23" data-name="layer1"><g id="a02a8e88-0564-4178-95c2-091ffdc01fe3" data-name="g3477"><path id="e93d6f9c-2d7e-4ce1-b119-7e91abd6119f" data-name="path4337-3" d="M821.73,631.5a23.84,23.84,0,0,0-6.16,15.65c.24,11.74,5.45,16.13,13.87,32.25a157,157,0,0,1,9.25,26.91,19.15,19.15,0,0,0,1.06,3.68c.24.12.6-1.54,1.07-3.44a141.39,141.39,0,0,1,9.25-26.91c8.42-16.12,13.63-20.51,13.87-32.25a22.88,22.88,0,0,0-6.16-15.65,26.59,26.59,0,0,0-18-8.3c-7-.12-13.64,3.44-18,8.06Z" transform="translate(-13.6 -17.1)" style="fill:#b3507a;stroke:#a53163;stroke-miterlimit:3.7939000129699707;stroke-width:3.039299964904785px"/><circle id="add5de53-9dfa-4988-8d12-45345c67aacf" data-name="path3049" cx="826.15" cy="630.41" r="9.25" style="fill:#fff"/></g></g></svg>